# xmcd
#
# Track frame offsets:
#	182
#	9035
#	36172
#	57645
#	75150
#	98802
#	114667
#	129430
#	157922
#	178807
#	194692
#	209955
#
# Disc length: 2992 seconds
#
# Revision: 0
# Processed by: cddbd v1.5.2PL0 Copyright (c) Steve Scherf et al.
# Submitted via: audiograbber 1.83.01
#
DISCID=9f0bae0c
DTITLE=Ian Matthews - Walking a Changing Line
DYEAR=1988
DGENRE=
TTITLE0=Dream Sequence
TTITLE1=Standing Still
TTITLE2=Except for a Tear
TTITLE3=Following Every Finger
TTITLE4=Alive Alone
TTITLE5=Smell of Home
TTITLE6=On Squirrel Hill
TTITLE7=Shadows Break
TTITLE8=This Fabrication
TTITLE9=Lovers by Rote
TTITLE10=Only a Motion
TTITLE11=Why Fight
EXTD=
EXTT0=
EXTT1=
EXTT2=
EXTT3=
EXTT4=
EXTT5=
EXTT6=
EXTT7=
EXTT8=
EXTT9=
EXTT10=
EXTT11=
PLAYORDER=
